<?xml version="1.0" encoding="utf-8"?>
<!-- Generator: Adobe Illustrator 16.0.3, SVG Export Plug-In . SVG Version: 6.00 Build 0)  -->
<!DOCTYPE svg PUBLIC "-//W3C//DTD SVG 1.1//EN" "http://www.w3.org/Graphics/SVG/1.1/DTD/svg11.dtd">
<svg version="1.1" id="Layer_1" xmlns="http://www.w3.org/2000/svg" xmlns:xlink="http://www.w3.org/1999/xlink" x="0px" y="0px"
	 width="126.823px" height="50.207px" viewBox="0 0 126.823 50.207" enable-background="new 0 0 126.823 50.207"
	 xml:space="preserve">
<path fill="#14A74A" d="M63.414,38.761c27.529,0,51.154,4.086,61.27,11.041h1.08c-8.84-7.903-33.416-14.192-62.35-14.192
	c-28.939,0-53.51,6.289-62.354,14.192h1.081C12.253,42.847,35.878,38.761,63.414,38.761"/>
<path fill="none" stroke="#14A74A" stroke-width="0.809" d="M63.414,38.761c27.529,0,51.154,4.086,61.27,11.041h1.08
	c-8.84-7.903-33.416-14.192-62.35-14.192c-28.939,0-53.51,6.289-62.354,14.192h1.081C12.253,42.847,35.878,38.761,63.414,38.761z"/>
<path fill="#E51E25" d="M91.744,8.531c-0.119,1.354-1.314,2.365-2.672,2.246c-1.361-0.119-2.359-1.322-2.24-2.676
	c0.117-1.355,1.308-2.357,2.67-2.24C90.859,5.98,91.863,7.176,91.744,8.531"/>
<path fill="#E51E25" d="M97.977,3.753c-0.166,1.902-1.838,3.305-3.736,3.137c-1.9-0.166-3.307-1.836-3.139-3.739
	c0.166-1.898,1.84-3.304,3.74-3.138C96.74,0.179,98.143,1.855,97.977,3.753"/>
<path fill="#1569B3" d="M34.844,10.15V6.792H16.526v3.358h10.971v2.65H16.526v3.354h10.971v2.674h-6.527
	c-3.186,0-5.782,2.595-5.782,5.781v0.689c0,1.539,0.6,2.994,1.692,4.086c1.099,1.092,2.547,1.694,4.09,1.694h4.099
	c1.547,0,2.998-0.603,4.094-1.694c1.088-1.092,1.697-2.547,1.697-4.086v-0.445v-2.666h3.91v-3.359h-3.91v-2.674h3.983V12.8H30.86
	v-2.65H34.844z M27.498,24.853v0.445c0,1.338-1.086,2.426-2.428,2.426h-4.099c-0.643,0-1.25-0.252-1.717-0.707
	c-0.459-0.467-0.707-1.08-0.707-1.719v-0.689c0-0.645,0.248-1.264,0.707-1.715c0.467-0.457,1.074-0.707,1.717-0.707h6.527V24.853z"
	/>
<path fill="#1569B3" d="M83.191,27.692h-0.016h-0.012c-0.07,0.002-0.135,0.002-0.209,0.002c-3.543,0-6.156-0.807-7.746-2.396
	c-1.367-1.367-2.059-3.419-2.059-6.101c0-2.207,1.002-4.463,2.744-6.199c1.869-1.854,4.299-2.864,6.836-2.842h2.768v-3.35h-20.65
	v3.35h9.172c-0.17,0.156-0.326,0.308-0.484,0.469c-2.379,2.347-3.742,5.476-3.742,8.572c0,3.605,1.021,6.451,3.045,8.475
	c2.24,2.244,5.648,3.382,10.117,3.382h0.268h-0.031h5.189v-3.361H83.191z"/>
<path fill="#1569B3" d="M12.666,6.369H9.264c-0.528,3.145-0.864,7.943-0.864,12.572c0,4.395,0.303,8.944,0.778,12.073h3.396
	c-0.496-2.948-0.816-7.571-0.816-12.073C11.757,14.182,12.112,9.285,12.666,6.369"/>
<path fill="#1569B3" d="M60.492,5.947l-15.943,5.605l-0.137,0.049c-3.037,1.035-5.082,3.903-5.082,7.117
	c0,3.213,2.045,6.077,5.086,7.114l0.008-0.011l16.068,5.64l0.156,0.056v-0.162v-3.504v-0.078l-0.084-0.027l-15.008-5.247
	c-1.615-0.551-2.699-2.072-2.699-3.78c0-1.761,1.127-3.298,2.799-3.822c0.008,0,14.908-5.232,14.908-5.232l0.084-0.026V9.554V6.06
	V5.894L60.492,5.947z"/>
<path fill="#1569B3" d="M119.48,24.601h-3.406v-0.02c-0.016,0.254-0.26,1.161-0.514,1.9l-0.008,0.021
	c0,0.002-0.006,0.024-0.006,0.024c-0.395,1.269-1.967,2.022-3.434,1.646c-0.898-0.229-1.779-0.679-1.787-3.343v-0.01V24.81
	l-0.016-0.979v0.026c-0.004-4.268-1.832-7.088-5.148-7.94c-0.627-0.162-1.273-0.244-1.918-0.246c0.014,0-0.041-0.002-0.041-0.002
	h-0.01h-0.012c-1.088,0-2.105,0.192-3.043,0.549c1.252-3.646,2.797-7.433,4.006-9.767h-4.119c-1.488,3.201-3.223,7.746-4.395,11.597
	c-1.436,4.731-2.559,9.739-2.928,13.011h3.762c0.252-2,0.781-4.637,1.488-7.444h0.002c0.645-2.069,2.072-4.537,5.225-4.539
	l0.035,0.002c0.379,0,0.744,0.046,1.098,0.138c0.641,0.166,2.588,0.664,2.592,4.643v0.013v0.012l0.015,0.979v-0.022
	c0.013,3.662,1.476,5.896,4.347,6.631c3.225,0.828,6.604-0.935,7.533-3.933l-0.014,0.046
	C118.994,26.976,119.48,25.462,119.48,24.601"/>
<g>
</g>
<g>
</g>
<g>
</g>
<g>
</g>
<g>
</g>
<g>
</g>
</svg>
