<?xml version="1.0" encoding="UTF-8" standalone="no"?>
<!-- Created with Inkscape (http://www.inkscape.org/) -->

<svg
   version="1.1"
   id="svg9"
   xml:space="preserve"
   width="1600"
   height="1600"
   viewBox="0 0 1600 1600"
   sodipodi:docname="Korean National Railroad logo 1963-1996.svg"
   inkscape:version="1.1.1 (3bf5ae0d25, 2021-09-20)"
   xmlns:inkscape="http://www.inkscape.org/namespaces/inkscape"
   xmlns:sodipodi="http://sodipodi.sourceforge.net/DTD/sodipodi-0.dtd"
   xmlns="http://www.w3.org/2000/svg"
   xmlns:svg="http://www.w3.org/2000/svg"><defs
     id="defs13"><clipPath
       clipPathUnits="userSpaceOnUse"
       id="clipPath23"><path
         d="M 0,1200 H 1200 V 0 H 0 Z"
         id="path21" /></clipPath></defs><sodipodi:namedview
     id="namedview11"
     pagecolor="#ffffff"
     bordercolor="#666666"
     borderopacity="1.0"
     inkscape:pageshadow="2"
     inkscape:pageopacity="0.0"
     inkscape:pagecheckerboard="0"
     showgrid="false"
     inkscape:zoom="0.505625"
     inkscape:cx="800"
     inkscape:cy="800"
     inkscape:window-width="1920"
     inkscape:window-height="1017"
     inkscape:window-x="-8"
     inkscape:window-y="-8"
     inkscape:window-maximized="1"
     inkscape:current-layer="g15" /><g
     id="g15"
     inkscape:groupmode="layer"
     inkscape:label="KNR1963-1996"
     transform="matrix(1.3333333,0,0,-1.3333333,0,1600)"><g
       id="g17"><g
         id="g19"
         clip-path="url(#clipPath23)"><g
           id="g25"
           transform="translate(215.5,485)"><path
             d="m 0,0 c 99,-5.8 170.4,-27.4 205.6,-62 44.9,-44.2 31.3,-109 -40.5,-193.5 -5.4,-6.3 -10.2,-11.5 -10.8,-11.5 -3,0 -34.6,23.6 -52.1,39 C 37.6,-171.3 -10.5,-91.6 -29.9,-9.2 L -32.3,1 h 7.7 C -20.4,1 -9.3,0.5 0,0 m 436.5,513.1 c 48.6,-6.3 93.4,-19.8 135.5,-40.9 20.5,-10.2 28.5,-14.8 46.5,-26.7 25,-16.5 40.9,-29.4 63.3,-51.4 23.2,-22.8 39.9,-43 57.2,-69.1 40.6,-61.4 63.9,-129.6 69.6,-203.3 1.4,-18.9 0.6,-62.3 -1.6,-79.7 -11.6,-94.2 -51.1,-178 -115.5,-245.4 -10.6,-11.1 -33.1,-31.9 -33.7,-31.2 -0.3,0.2 -3.3,6.7 -6.7,14.4 C 622.3,-155.9 576.7,-98.7 519.5,-55 453.2,-4.5 365.8,29.7 268,43.4 227.8,49.1 196.7,51 148.4,51.1 91.5,51.1 42.9,47.5 -16.9,38.9 -28.3,37.2 -37.9,36 -38,36.2 c -0.2,0.2 -1.1,8.2 -2.1,17.8 -2.2,23.6 -1.5,65.3 1.5,89 8.8,68.3 32.2,130.1 70.9,187 19.5,28.7 44.1,56.6 71.2,80.4 57.3,50.5 129,85.3 204,99 11.4,2 28.6,4.3 46.5,6 2.2,0.2 18,0.3 35,0.1 24.7,-0.2 34.4,-0.7 47.5,-2.4 M 349,648 C 227.2,639.5 118.2,595.8 24.4,518 8.4,504.6 -30.1,466.1 -43.5,450 -110.8,369 -153,275.4 -168.4,173 c -4.3,-29 -5.5,-46.9 -5.5,-83 0,-35.7 1.1,-51.4 5.4,-81 22.9,-157 112.9,-297.6 246.7,-385.4 20.4,-13.4 55.9,-33.6 59,-33.6 0.6,0 6,6.4 12,14.3 61.1,79.5 99.2,150.1 111.7,206.7 3.5,15.8 4.6,26.1 4.6,42 0,22.1 -3.6,39.1 -12,56.9 -27,56.5 -70.2,87.1 -139,98 C 89.1,12 80.8,12.5 41.3,12.5 H 2.7 L 2.1,16 c -0.3,1.9 -0.6,4.9 -0.6,6.6 v 3.1 l 7.7,0.7 c 4.2,0.3 11.5,0.6 16.2,0.6 4.7,0 19.4,1.1 32.6,2.4 43.3,4.5 55.5,5.1 98.5,5 44.6,0 62,-1.1 95.8,-5.9 106.8,-15.4 199.9,-60.2 288.9,-138.9 63.6,-56.2 101,-125.4 112,-207.4 2.1,-15.6 2.4,-60.4 0.5,-72.6 -0.7,-4.4 -1.1,-8.1 -0.9,-8.2 0.6,-0.7 29.2,16.9 45.2,27.7 30,20.3 52.7,39.2 80.1,66.4 21.6,21.6 34.4,36.1 51.4,58.7 63.2,83.6 99.6,177.3 110.7,284.8 2.4,23.5 2.4,79 0,103 -11.7,116.3 -54.4,218.6 -128.7,308 -13.4,16.1 -51.9,54.6 -68,68 -89,74 -192.5,117.3 -307,128.5 -18.7,1.9 -69.6,2.7 -87.5,1.5"
             style="fill:#000000;fill-opacity:1;fill-rule:nonzero;stroke:none"
             id="path27" /></g><g
           id="g29"
           transform="translate(359,502)"><path
             d="m 0,0 c 18.4,-4.9 26.8,-7.9 40.5,-14.5 27.8,-13.4 48.3,-31.4 66.7,-58.9 14.6,-21.8 23.4,-42.7 27.5,-65.1 2.5,-13.4 2.2,-40.4 -0.5,-56.5 C 123.8,-256.2 88.9,-324.9 24.7,-410.5 18.1,-419.3 11.4,-428.1 9.8,-430 l -2.8,-3.4 2.6,-1.4 c 1.4,-0.7 2.7,-1.2 2.8,-1 3.1,5.1 14.1,18.4 21.9,26.5 38.3,39.7 87.2,66.5 141.7,77.7 37.4,7.6 83.5,7.6 124.8,0 64.2,-11.7 128.1,-42.5 178,-85.6 14,-12.1 15,-11.8 17.3,6.2 1.8,13.4 1.8,54.8 0.1,69.5 -6.2,52.4 -22.6,98.5 -49.4,138.5 -23.2,34.6 -47.1,58.2 -95.1,94.1 -60.9,45.6 -116.4,74.4 -176.8,91.8 C 123.3,-2.2 74.7,4.1 13,3.9 h -27.5 z"
             style="fill:#000000;fill-opacity:1;fill-rule:nonzero;stroke:none"
             id="path31" /></g></g></g></g></svg>
