<svg id="レイヤー_1" data-name="レイヤー 1" xmlns="http://www.w3.org/2000/svg" xmlns:xlink="http://www.w3.org/1999/xlink" viewBox="0 0 275.84 52.18"><defs><style>.cls-1{fill:url(#名称未設定グラデーション);}.cls-2{fill:url(#名称未設定グラデーション_2);}.cls-3{fill:url(#名称未設定グラデーション_3);}.cls-4{fill:url(#名称未設定グラデーション_4);}.cls-5{fill:url(#名称未設定グラデーション_5);}.cls-6{fill:url(#名称未設定グラデーション_6);}.cls-7{fill:url(#名称未設定グラデーション_7);}.cls-8,.cls-9{fill:#1473b4;}.cls-9{font-size:25px;font-family:TrebuchetMS-Bold, Trebuchet MS;font-weight:700;}</style><linearGradient id="名称未設定グラデーション" x1="5.68" y1="406.7" x2="5.46" y2="368.88" gradientTransform="matrix(1, 0, 0, -1, 0, 408.18)" gradientUnits="userSpaceOnUse"><stop offset="0" stop-color="#44c0ed"/><stop offset="1" stop-color="#1573b3"/></linearGradient><linearGradient id="名称未設定グラデーション_2" x1="5.51" y1="406.7" x2="5.28" y2="368.88" xlink:href="#名称未設定グラデーション"/><linearGradient id="名称未設定グラデーション_3" x1="5.53" y1="406.7" x2="5.3" y2="368.88" xlink:href="#名称未設定グラデーション"/><linearGradient id="名称未設定グラデーション_4" x1="36.45" y1="406.64" x2="36.22" y2="368.86" xlink:href="#名称未設定グラデーション"/><linearGradient id="名称未設定グラデーション_5" x1="19.74" y1="406.67" x2="19.51" y2="368.89" xlink:href="#名称未設定グラデーション"/><linearGradient id="名称未設定グラデーション_6" x1="19.85" y1="406.64" x2="19.62" y2="368.87" xlink:href="#名称未設定グラデーション"/><linearGradient id="名称未設定グラデーション_7" x1="36.56" y1="406.62" x2="36.33" y2="368.84" xlink:href="#名称未設定グラデーション"/></defs><path class="cls-1" d="M0,32.15a5.43,5.43,0,0,0,5.48,5.36A5.36,5.36,0,0,0,5.81,26.8a1.82,1.82,0,0,0-.33,0A5.41,5.41,0,0,0,0,32.15Z"/><path class="cls-2" d="M0,6.64A5.42,5.42,0,0,0,5.46,12h0A5.42,5.42,0,0,0,11,6.66v0A5.42,5.42,0,0,0,5.48,1.28h0A5.42,5.42,0,0,0,0,6.63Z"/><path class="cls-3" d="M0,19.39a5.42,5.42,0,0,0,5.48,5.36h0A5.37,5.37,0,1,0,5.48,14,5.41,5.41,0,0,0,0,19.37Z"/><polygon class="cls-4" points="38.64 21.9 27.66 15.18 33.66 2.76 45.11 9.03 38.64 21.9"/><polygon class="cls-5" points="21.94 20.42 10.96 13.7 16.96 1.28 28.42 7.54 21.94 20.42"/><polygon class="cls-6" points="21.94 38.19 10.96 31.47 16.96 19.05 28.42 25.32 21.94 38.19"/><polygon class="cls-7" points="38.64 39.56 27.66 32.84 33.66 20.43 45.11 26.69 38.64 39.56"/><path class="cls-8" d="M1.5,41.69H3.42L9.59,49V41.69h1.78v9.2H9.44L3.27,43.62V50.9H1.5Z"/><path class="cls-8" d="M14.14,41.69h2.39l3.55,7.15,3.54-7.15H26v9.2H24.24v-7L20.69,50.9H19.46l-3.54-7.06V50.9H14.14Z"/><path class="cls-8" d="M29,41.66h6.47a4.31,4.31,0,0,1,2.56.7,2.37,2.37,0,0,1,.56,3.31,2.13,2.13,0,0,1-.56.56,3.37,3.37,0,0,1-1.54.49l3,4.13H37.57l-2.77-4h-4v4H29Zm1.77,1v3.18h4.55a2.28,2.28,0,0,0,1.31-.38,1.5,1.5,0,0,0-.08-2.37,2.52,2.52,0,0,0-1.46-.43Z"/><rect class="cls-8" x="41.26" y="41.69" width="1.59" height="9.21"/><text class="cls-9" transform="translate(63.1 21.44)">National Maritime<tspan x="0" y="24">Research Institute</tspan></text></svg>